<?xml version="1.0" encoding="UTF-8"?>
<svg width="432px" height="80px" viewBox="0 0 432 80" version="1.1" xmlns="http://www.w3.org/2000/svg" xmlns:xlink="http://www.w3.org/1999/xlink">
    <title>t copy 2</title>
    <defs>
        <path d="M0,0 L80,0 L80,80 L64,80 C28.653776,80 4.32866401e-15,51.346224 0,16 L0,0 L0,0 Z" id="path-1"></path>
    </defs>
    <g id="t-copy-2" stroke="none" stroke-width="1" fill="none" fill-rule="evenodd">
        <path d="M105.76,27.256 C106.624,27.256 107.368,26.944 107.992,26.32 C108.616,25.696 108.928,24.952 108.928,24.088 C108.928,23.224 108.616,22.48 107.992,21.856 C107.368,21.232 106.624,20.92 105.76,20.92 C104.896,20.92 104.152,21.232 103.528,21.856 C102.904,22.48 102.592,23.224 102.592,24.088 C102.592,24.952 102.904,25.696 103.528,26.32 C104.152,26.944 104.896,27.256 105.76,27.256 Z M100.96,66.52 C102.688,66.52 104.024,66.2 104.968,65.56 C105.912,64.92 106.6,64.16 107.032,63.28 C107.464,62.4 107.72,61.488 107.8,60.544 C107.88,59.6 107.92,58.84 107.92,58.264 L107.92,58.264 L107.92,32.248 L103.6,32.248 L103.6,58.072 C103.6,59.512 103.368,60.608 102.904,61.36 C102.44,62.112 101.616,62.488 100.432,62.488 C100.144,62.488 99.84,62.448 99.52,62.368 C99.2,62.288 98.912,62.2 98.656,62.104 L98.656,62.104 L98.176,66.088 C98.624,66.248 99.08,66.36 99.544,66.424 C100.008,66.488 100.48,66.52 100.96,66.52 Z M121.552,55.576 C123.28,55.576 124.8,55.272 126.112,54.664 C127.424,54.056 128.56,53.016 129.52,51.544 L129.52,51.544 L129.616,51.544 C129.616,52.696 129.664,53.848 129.76,55 L129.76,55 L133.6,55 C133.536,54.392 133.488,53.752 133.456,53.08 C133.424,52.408 133.408,51.672 133.408,50.872 L133.408,50.872 L133.408,39.256 C133.408,38.264 133.224,37.312 132.856,36.4 C132.488,35.488 131.92,34.68 131.152,33.976 C130.384,33.272 129.4,32.712 128.2,32.296 C127,31.88 125.568,31.672 123.904,31.672 C122.304,31.672 120.704,31.952 119.104,32.512 C117.504,33.072 116.096,33.912 114.88,35.032 L114.88,35.032 L117.472,37.72 C117.856,37.432 118.256,37.128 118.672,36.808 C119.088,36.488 119.552,36.208 120.064,35.968 C120.576,35.728 121.144,35.528 121.768,35.368 C122.392,35.208 123.12,35.128 123.952,35.128 C124.88,35.128 125.68,35.264 126.352,35.536 C127.024,35.808 127.584,36.176 128.032,36.64 C128.48,37.104 128.816,37.624 129.04,38.2 C129.264,38.776 129.376,39.352 129.376,39.928 L129.376,39.928 L129.376,40.888 L126.208,40.888 C124.48,40.888 122.856,41.024 121.336,41.296 C119.816,41.568 118.488,42.016 117.352,42.64 C116.216,43.264 115.32,44.072 114.664,45.064 C114.008,46.056 113.68,47.288 113.68,48.76 C113.68,49.88 113.888,50.864 114.304,51.712 C114.72,52.56 115.288,53.272 116.008,53.848 C116.728,54.424 117.568,54.856 118.528,55.144 C119.488,55.432 120.496,55.576 121.552,55.576 Z M122.896,52.12 C121.392,52.12 120.2,51.832 119.32,51.256 C118.44,50.68 118,49.736 118,48.424 C118,47.528 118.28,46.792 118.84,46.216 C119.4,45.64 120.12,45.192 121,44.872 C121.88,44.552 122.856,44.336 123.928,44.224 C125,44.112 126.048,44.056 127.072,44.056 L127.072,44.056 L129.376,44.056 L129.376,45.496 C129.376,46.264 129.264,47.04 129.04,47.824 C128.816,48.608 128.448,49.32 127.936,49.96 C127.424,50.6 126.752,51.12 125.92,51.52 C125.088,51.92 124.08,52.12 122.896,52.12 Z M144.016,55 L144.016,43.288 C144.016,41.976 144.176,40.84 144.496,39.88 C144.816,38.92 145.264,38.128 145.84,37.504 C146.416,36.88 147.088,36.424 147.856,36.136 C148.624,35.848 149.456,35.704 150.352,35.704 C151.024,35.704 151.672,35.808 152.296,36.016 C152.92,36.224 153.472,36.56 153.952,37.024 C154.432,37.488 154.816,38.096 155.104,38.848 C155.392,39.6 155.536,40.504 155.536,41.56 L155.536,41.56 L155.536,55 L159.856,55 L159.856,40.36 C159.856,38.856 159.632,37.552 159.184,36.448 C158.736,35.344 158.136,34.44 157.384,33.736 C156.632,33.032 155.752,32.512 154.744,32.176 C153.736,31.84 152.688,31.672 151.6,31.672 C149.84,31.672 148.288,32.048 146.944,32.8 C145.6,33.552 144.656,34.536 144.112,35.752 L144.112,35.752 L144.016,35.752 L144.016,32.248 L139.696,32.248 L139.696,55 L144.016,55 Z M174.832,55.576 C175.28,55.576 175.912,55.52 176.728,55.408 C177.544,55.296 178.208,55.096 178.72,54.808 L178.72,54.808 L178.72,50.872 C178.272,51.128 177.776,51.304 177.232,51.4 C176.688,51.496 176.16,51.544 175.648,51.544 C174.816,51.544 174.184,51.392 173.752,51.088 C173.32,50.784 173,50.384 172.792,49.888 C172.584,49.392 172.464,48.832 172.432,48.208 C172.4,47.584 172.384,46.952 172.384,46.312 L172.384,46.312 L172.384,35.992 L178.576,35.992 L178.576,32.248 L172.384,32.248 L172.384,25.864 L168.064,25.864 L168.064,32.248 L163.072,32.248 L163.072,35.992 L168.064,35.992 L168.064,47.848 C168.064,48.776 168.104,49.696 168.184,50.608 C168.264,51.52 168.52,52.344 168.952,53.08 C169.384,53.816 170.056,54.416 170.968,54.88 C171.88,55.344 173.168,55.576 174.832,55.576 Z M195.136,55.576 C196.832,55.576 198.416,55.264 199.888,54.64 C201.36,54.016 202.64,53.168 203.728,52.096 C204.816,51.024 205.672,49.76 206.296,48.304 C206.92,46.848 207.232,45.288 207.232,43.624 C207.232,41.96 206.92,40.408 206.296,38.968 C205.672,37.528 204.816,36.264 203.728,35.176 C202.64,34.088 201.36,33.232 199.888,32.608 C198.416,31.984 196.832,31.672 195.136,31.672 C193.44,31.672 191.856,31.984 190.384,32.608 C188.912,33.232 187.632,34.088 186.544,35.176 C185.456,36.264 184.6,37.528 183.976,38.968 C183.352,40.408 183.04,41.96 183.04,43.624 C183.04,45.288 183.352,46.848 183.976,48.304 C184.6,49.76 185.456,51.024 186.544,52.096 C187.632,53.168 188.912,54.016 190.384,54.64 C191.856,55.264 193.44,55.576 195.136,55.576 Z M195.136,51.544 C193.984,51.544 192.944,51.344 192.016,50.944 C191.088,50.544 190.304,50 189.664,49.312 C189.024,48.624 188.528,47.792 188.176,46.816 C187.824,45.84 187.648,44.776 187.648,43.624 C187.648,42.472 187.824,41.408 188.176,40.432 C188.528,39.456 189.024,38.624 189.664,37.936 C190.304,37.248 191.088,36.704 192.016,36.304 C192.944,35.904 193.984,35.704 195.136,35.704 C196.288,35.704 197.328,35.904 198.256,36.304 C199.184,36.704 199.968,37.248 200.608,37.936 C201.248,38.624 201.744,39.456 202.096,40.432 C202.448,41.408 202.624,42.472 202.624,43.624 C202.624,44.776 202.448,45.84 202.096,46.816 C201.744,47.792 201.248,48.624 200.608,49.312 C199.968,50 199.184,50.544 198.256,50.944 C197.328,51.344 196.288,51.544 195.136,51.544 Z M216.976,55 L216.976,43.288 C216.976,41.976 217.136,40.84 217.456,39.88 C217.776,38.92 218.224,38.128 218.8,37.504 C219.376,36.88 220.048,36.424 220.816,36.136 C221.584,35.848 222.416,35.704 223.312,35.704 C223.984,35.704 224.632,35.808 225.256,36.016 C225.88,36.224 226.432,36.56 226.912,37.024 C227.392,37.488 227.776,38.096 228.064,38.848 C228.352,39.6 228.496,40.504 228.496,41.56 L228.496,41.56 L228.496,55 L232.816,55 L232.816,40.36 C232.816,38.856 232.592,37.552 232.144,36.448 C231.696,35.344 231.096,34.44 230.344,33.736 C229.592,33.032 228.712,32.512 227.704,32.176 C226.696,31.84 225.648,31.672 224.56,31.672 C222.8,31.672 221.248,32.048 219.904,32.8 C218.56,33.552 217.616,34.536 217.072,35.752 L217.072,35.752 L216.976,35.752 L216.976,32.248 L212.656,32.248 L212.656,55 L216.976,55 Z M241.84,27.256 C242.704,27.256 243.448,26.944 244.072,26.32 C244.696,25.696 245.008,24.952 245.008,24.088 C245.008,23.224 244.696,22.48 244.072,21.856 C243.448,21.232 242.704,20.92 241.84,20.92 C240.976,20.92 240.232,21.232 239.608,21.856 C238.984,22.48 238.672,23.224 238.672,24.088 C238.672,24.952 238.984,25.696 239.608,26.32 C240.232,26.944 240.976,27.256 241.84,27.256 Z M244,55 L244,32.248 L239.68,32.248 L239.68,55 L244,55 Z M261.856,55.576 C263.552,55.576 265.136,55.264 266.608,54.64 C268.08,54.016 269.36,53.168 270.448,52.096 C271.536,51.024 272.392,49.76 273.016,48.304 C273.64,46.848 273.952,45.288 273.952,43.624 C273.952,41.96 273.64,40.408 273.016,38.968 C272.392,37.528 271.536,36.264 270.448,35.176 C269.36,34.088 268.08,33.232 266.608,32.608 C265.136,31.984 263.552,31.672 261.856,31.672 C260.16,31.672 258.576,31.984 257.104,32.608 C255.632,33.232 254.352,34.088 253.264,35.176 C252.176,36.264 251.32,37.528 250.696,38.968 C250.072,40.408 249.76,41.96 249.76,43.624 C249.76,45.288 250.072,46.848 250.696,48.304 C251.32,49.76 252.176,51.024 253.264,52.096 C254.352,53.168 255.632,54.016 257.104,54.64 C258.576,55.264 260.16,55.576 261.856,55.576 Z M261.856,51.544 C260.704,51.544 259.664,51.344 258.736,50.944 C257.808,50.544 257.024,50 256.384,49.312 C255.744,48.624 255.248,47.792 254.896,46.816 C254.544,45.84 254.368,44.776 254.368,43.624 C254.368,42.472 254.544,41.408 254.896,40.432 C255.248,39.456 255.744,38.624 256.384,37.936 C257.024,37.248 257.808,36.704 258.736,36.304 C259.664,35.904 260.704,35.704 261.856,35.704 C263.008,35.704 264.048,35.904 264.976,36.304 C265.904,36.704 266.688,37.248 267.328,37.936 C267.968,38.624 268.464,39.456 268.816,40.432 C269.168,41.408 269.344,42.472 269.344,43.624 C269.344,44.776 269.168,45.84 268.816,46.816 C268.464,47.792 267.968,48.624 267.328,49.312 C266.688,50 265.904,50.544 264.976,50.944 C264.048,51.344 263.008,51.544 261.856,51.544 Z M286.144,55.576 C287.872,55.576 289.392,55.272 290.704,54.664 C292.016,54.056 293.152,53.016 294.112,51.544 L294.112,51.544 L294.208,51.544 C294.208,52.696 294.256,53.848 294.352,55 L294.352,55 L298.192,55 C298.128,54.392 298.08,53.752 298.048,53.08 C298.016,52.408 298,51.672 298,50.872 L298,50.872 L298,39.256 C298,38.264 297.816,37.312 297.448,36.4 C297.08,35.488 296.512,34.68 295.744,33.976 C294.976,33.272 293.992,32.712 292.792,32.296 C291.592,31.88 290.16,31.672 288.496,31.672 C286.896,31.672 285.296,31.952 283.696,32.512 C282.096,33.072 280.688,33.912 279.472,35.032 L279.472,35.032 L282.064,37.72 C282.448,37.432 282.848,37.128 283.264,36.808 C283.68,36.488 284.144,36.208 284.656,35.968 C285.168,35.728 285.736,35.528 286.36,35.368 C286.984,35.208 287.712,35.128 288.544,35.128 C289.472,35.128 290.272,35.264 290.944,35.536 C291.616,35.808 292.176,36.176 292.624,36.64 C293.072,37.104 293.408,37.624 293.632,38.2 C293.856,38.776 293.968,39.352 293.968,39.928 L293.968,39.928 L293.968,40.888 L290.8,40.888 C289.072,40.888 287.448,41.024 285.928,41.296 C284.408,41.568 283.08,42.016 281.944,42.64 C280.808,43.264 279.912,44.072 279.256,45.064 C278.6,46.056 278.272,47.288 278.272,48.76 C278.272,49.88 278.48,50.864 278.896,51.712 C279.312,52.56 279.88,53.272 280.6,53.848 C281.32,54.424 282.16,54.856 283.12,55.144 C284.08,55.432 285.088,55.576 286.144,55.576 Z M287.488,52.12 C285.984,52.12 284.792,51.832 283.912,51.256 C283.032,50.68 282.592,49.736 282.592,48.424 C282.592,47.528 282.872,46.792 283.432,46.216 C283.992,45.64 284.712,45.192 285.592,44.872 C286.472,44.552 287.448,44.336 288.52,44.224 C289.592,44.112 290.64,44.056 291.664,44.056 L291.664,44.056 L293.968,44.056 L293.968,45.496 C293.968,46.264 293.856,47.04 293.632,47.824 C293.408,48.608 293.04,49.32 292.528,49.96 C292.016,50.6 291.344,51.12 290.512,51.52 C289.68,51.92 288.672,52.12 287.488,52.12 Z M315.568,55 L324.496,32.248 L319.888,32.248 L313.36,49.672 L306.544,32.248 L301.552,32.248 L310.816,55 L315.568,55 Z M335.056,55.576 C336.784,55.576 338.304,55.272 339.616,54.664 C340.928,54.056 342.064,53.016 343.024,51.544 L343.024,51.544 L343.12,51.544 C343.12,52.696 343.168,53.848 343.264,55 L343.264,55 L347.104,55 C347.04,54.392 346.992,53.752 346.96,53.08 C346.928,52.408 346.912,51.672 346.912,50.872 L346.912,50.872 L346.912,39.256 C346.912,38.264 346.728,37.312 346.36,36.4 C345.992,35.488 345.424,34.68 344.656,33.976 C343.888,33.272 342.904,32.712 341.704,32.296 C340.504,31.88 339.072,31.672 337.408,31.672 C335.808,31.672 334.208,31.952 332.608,32.512 C331.008,33.072 329.6,33.912 328.384,35.032 L328.384,35.032 L330.976,37.72 C331.36,37.432 331.76,37.128 332.176,36.808 C332.592,36.488 333.056,36.208 333.568,35.968 C334.08,35.728 334.648,35.528 335.272,35.368 C335.896,35.208 336.624,35.128 337.456,35.128 C338.384,35.128 339.184,35.264 339.856,35.536 C340.528,35.808 341.088,36.176 341.536,36.64 C341.984,37.104 342.32,37.624 342.544,38.2 C342.768,38.776 342.88,39.352 342.88,39.928 L342.88,39.928 L342.88,40.888 L339.712,40.888 C337.984,40.888 336.36,41.024 334.84,41.296 C333.32,41.568 331.992,42.016 330.856,42.64 C329.72,43.264 328.824,44.072 328.168,45.064 C327.512,46.056 327.184,47.288 327.184,48.76 C327.184,49.88 327.392,50.864 327.808,51.712 C328.224,52.56 328.792,53.272 329.512,53.848 C330.232,54.424 331.072,54.856 332.032,55.144 C332.992,55.432 334,55.576 335.056,55.576 Z M336.4,52.12 C334.896,52.12 333.704,51.832 332.824,51.256 C331.944,50.68 331.504,49.736 331.504,48.424 C331.504,47.528 331.784,46.792 332.344,46.216 C332.904,45.64 333.624,45.192 334.504,44.872 C335.384,44.552 336.36,44.336 337.432,44.224 C338.504,44.112 339.552,44.056 340.576,44.056 L340.576,44.056 L342.88,44.056 L342.88,45.496 C342.88,46.264 342.768,47.04 342.544,47.824 C342.32,48.608 341.952,49.32 341.44,49.96 C340.928,50.6 340.256,51.12 339.424,51.52 C338.592,51.92 337.584,52.12 336.4,52.12 Z M357.856,55 L357.856,18.712 L353.536,18.712 L353.536,55 L357.856,55 Z M375.712,55.576 C377.408,55.576 378.992,55.264 380.464,54.64 C381.936,54.016 383.216,53.168 384.304,52.096 C385.392,51.024 386.248,49.76 386.872,48.304 C387.496,46.848 387.808,45.288 387.808,43.624 C387.808,41.96 387.496,40.408 386.872,38.968 C386.248,37.528 385.392,36.264 384.304,35.176 C383.216,34.088 381.936,33.232 380.464,32.608 C378.992,31.984 377.408,31.672 375.712,31.672 C374.016,31.672 372.432,31.984 370.96,32.608 C369.488,33.232 368.208,34.088 367.12,35.176 C366.032,36.264 365.176,37.528 364.552,38.968 C363.928,40.408 363.616,41.96 363.616,43.624 C363.616,45.288 363.928,46.848 364.552,48.304 C365.176,49.76 366.032,51.024 367.12,52.096 C368.208,53.168 369.488,54.016 370.96,54.64 C372.432,55.264 374.016,55.576 375.712,55.576 Z M375.712,51.544 C374.56,51.544 373.52,51.344 372.592,50.944 C371.664,50.544 370.88,50 370.24,49.312 C369.6,48.624 369.104,47.792 368.752,46.816 C368.4,45.84 368.224,44.776 368.224,43.624 C368.224,42.472 368.4,41.408 368.752,40.432 C369.104,39.456 369.6,38.624 370.24,37.936 C370.88,37.248 371.664,36.704 372.592,36.304 C373.52,35.904 374.56,35.704 375.712,35.704 C376.864,35.704 377.904,35.904 378.832,36.304 C379.76,36.704 380.544,37.248 381.184,37.936 C381.824,38.624 382.32,39.456 382.672,40.432 C383.024,41.408 383.2,42.472 383.2,43.624 C383.2,44.776 383.024,45.84 382.672,46.816 C382.32,47.792 381.824,48.624 381.184,49.312 C380.544,50 379.76,50.544 378.832,50.944 C377.904,51.344 376.864,51.544 375.712,51.544 Z M400.096,55.576 C401.216,55.576 402.328,55.448 403.432,55.192 C404.536,54.936 405.52,54.52 406.384,53.944 C407.248,53.368 407.952,52.624 408.496,51.712 C409.04,50.8 409.312,49.704 409.312,48.424 C409.312,47.368 409.144,46.472 408.808,45.736 C408.472,45 408.008,44.376 407.416,43.864 C406.824,43.352 406.12,42.936 405.304,42.616 C404.488,42.296 403.616,42.024 402.688,41.8 C402.208,41.704 401.632,41.592 400.96,41.464 C400.288,41.336 399.656,41.144 399.064,40.888 C398.472,40.632 397.96,40.296 397.528,39.88 C397.096,39.464 396.88,38.92 396.88,38.248 C396.88,37.416 397.256,36.784 398.008,36.352 C398.76,35.92 399.648,35.704 400.672,35.704 C401.76,35.704 402.68,35.92 403.432,36.352 C404.184,36.784 404.816,37.32 405.328,37.96 L405.328,37.96 L408.688,35.416 C407.856,34.072 406.736,33.112 405.328,32.536 C403.92,31.96 402.448,31.672 400.912,31.672 C399.856,31.672 398.808,31.816 397.768,32.104 C396.728,32.392 395.8,32.824 394.984,33.4 C394.168,33.976 393.512,34.704 393.016,35.584 C392.52,36.464 392.272,37.496 392.272,38.68 C392.272,39.768 392.464,40.68 392.848,41.416 C393.232,42.152 393.744,42.76 394.384,43.24 C395.024,43.72 395.76,44.104 396.592,44.392 C397.424,44.68 398.304,44.936 399.232,45.16 C399.712,45.256 400.264,45.376 400.888,45.52 C401.512,45.664 402.104,45.856 402.664,46.096 C403.224,46.336 403.704,46.664 404.104,47.08 C404.504,47.496 404.704,48.024 404.704,48.664 C404.704,49.144 404.568,49.568 404.296,49.936 C404.024,50.304 403.672,50.608 403.24,50.848 C402.808,51.088 402.312,51.264 401.752,51.376 C401.192,51.488 400.64,51.544 400.096,51.544 C398.848,51.544 397.792,51.272 396.928,50.728 C396.064,50.184 395.28,49.56 394.576,48.856 L394.576,48.856 L391.312,51.544 C392.432,53.08 393.704,54.136 395.128,54.712 C396.552,55.288 398.208,55.576 400.096,55.576 Z" id="jantonioavalos" fill="#000000" fill-rule="nonzero"></path>
        <g id="Group-2-Copy">
            <mask id="mask-2" fill="white">
                <use xlink:href="#path-1"></use>
            </mask>
            <use id="Mask" fill="#000000" xlink:href="#path-1"></use>
            <g id="Group-2" mask="url(#mask-2)">
                <g transform="translate(32.000000, 4.000000)">
                    <circle id="Oval" fill="#FFFFFF" transform="translate(10.000000, 20.000000) scale(-1, 1) translate(-10.000000, -20.000000) " cx="10" cy="20" r="10"></circle>
                    <polygon id="Rectangle" fill="#FFFFFF" transform="translate(12.000000, 46.000000) scale(-1, 1) translate(-12.000000, -46.000000) " points="4 20 20 20 4.22326691 72 4 72"></polygon>
                    <polygon id="Rectangle-Copy" fill="#FFFFFF" points="-5.50874273e-18 20 7.90162263 20 8 72 -5.50874273e-18 72"></polygon>
                    <circle id="Oval" fill="#FFFFFF" cx="10" cy="4" r="4"></circle>
                    <circle id="Oval" fill="#000000" cx="10.0555556" cy="20" r="4"></circle>
                </g>
            </g>
        </g>
    </g>
</svg>