<svg width="432" height="80" viewBox="0 0 432 80" fill="none" xmlns="http://www.w3.org/2000/svg">
<path fill-rule="evenodd" clip-rule="evenodd" d="M357.856 55V18.712H353.536V55H357.856ZM107.992 26.32C107.368 26.944 106.624 27.256 105.76 27.256C104.896 27.256 104.152 26.944 103.528 26.32C102.904 25.696 102.592 24.952 102.592 24.088C102.592 23.224 102.904 22.48 103.528 21.856C104.152 21.232 104.896 20.92 105.76 20.92C106.624 20.92 107.368 21.232 107.992 21.856C108.616 22.48 108.928 23.224 108.928 24.088C108.928 24.952 108.616 25.696 107.992 26.32ZM104.968 65.56C104.024 66.2 102.688 66.52 100.96 66.52C100.48 66.52 100.008 66.488 99.544 66.424C99.08 66.36 98.624 66.248 98.176 66.088L98.656 62.104C98.912 62.2 99.2 62.288 99.52 62.368C99.84 62.448 100.144 62.488 100.432 62.488C101.616 62.488 102.44 62.112 102.904 61.36C103.368 60.608 103.6 59.512 103.6 58.072V32.248H107.92V58.264C107.92 58.84 107.88 59.6 107.8 60.544C107.72 61.488 107.464 62.4 107.032 63.28C106.6 64.16 105.912 64.92 104.968 65.56ZM121.552 55.576C123.28 55.576 124.8 55.272 126.112 54.664C127.424 54.056 128.56 53.016 129.52 51.544H129.616C129.616 52.696 129.664 53.848 129.76 55H133.6C133.536 54.392 133.488 53.752 133.456 53.08C133.424 52.408 133.408 51.672 133.408 50.872V39.256C133.408 38.264 133.224 37.312 132.856 36.4C132.488 35.488 131.92 34.68 131.152 33.976C130.384 33.272 129.4 32.712 128.2 32.296C127 31.88 125.568 31.672 123.904 31.672C122.304 31.672 120.704 31.952 119.104 32.512C117.504 33.072 116.096 33.912 114.88 35.032L117.472 37.72C117.856 37.432 118.256 37.128 118.672 36.808C119.088 36.488 119.552 36.208 120.064 35.968C120.576 35.728 121.144 35.528 121.768 35.368C122.392 35.208 123.12 35.128 123.952 35.128C124.88 35.128 125.68 35.264 126.352 35.536C127.024 35.808 127.584 36.176 128.032 36.64C128.48 37.104 128.816 37.624 129.04 38.2C129.264 38.776 129.376 39.352 129.376 39.928V40.888H126.208C124.48 40.888 122.856 41.024 121.336 41.296C119.816 41.568 118.488 42.016 117.352 42.64C116.216 43.264 115.32 44.072 114.664 45.064C114.008 46.056 113.68 47.288 113.68 48.76C113.68 49.88 113.888 50.864 114.304 51.712C114.72 52.56 115.288 53.272 116.008 53.848C116.728 54.424 117.568 54.856 118.528 55.144C119.488 55.432 120.496 55.576 121.552 55.576ZM119.32 51.256C120.2 51.832 121.392 52.12 122.896 52.12C124.08 52.12 125.088 51.92 125.92 51.52C126.752 51.12 127.424 50.6 127.936 49.96C128.448 49.32 128.816 48.608 129.04 47.824C129.264 47.04 129.376 46.264 129.376 45.496V44.056H127.072C126.048 44.056 125 44.112 123.928 44.224C122.856 44.336 121.88 44.552 121 44.872C120.12 45.192 119.4 45.64 118.84 46.216C118.28 46.792 118 47.528 118 48.424C118 49.736 118.44 50.68 119.32 51.256ZM144.016 55V43.288C144.016 41.976 144.176 40.84 144.496 39.88C144.816 38.92 145.264 38.128 145.84 37.504C146.416 36.88 147.088 36.424 147.856 36.136C148.624 35.848 149.456 35.704 150.352 35.704C151.024 35.704 151.672 35.808 152.296 36.016C152.92 36.224 153.472 36.56 153.952 37.024C154.432 37.488 154.816 38.096 155.104 38.848C155.392 39.6 155.536 40.504 155.536 41.56V55H159.856V40.36C159.856 38.856 159.632 37.552 159.184 36.448C158.736 35.344 158.136 34.44 157.384 33.736C156.632 33.032 155.752 32.512 154.744 32.176C153.736 31.84 152.688 31.672 151.6 31.672C149.84 31.672 148.288 32.048 146.944 32.8C145.6 33.552 144.656 34.536 144.112 35.752H144.016V32.248H139.696V55H144.016ZM176.728 55.408C175.912 55.52 175.28 55.576 174.832 55.576C173.168 55.576 171.88 55.344 170.968 54.88C170.056 54.416 169.384 53.816 168.952 53.08C168.52 52.344 168.264 51.52 168.184 50.608C168.104 49.696 168.064 48.776 168.064 47.848V35.992H163.072V32.248H168.064V25.864H172.384V32.248H178.576V35.992H172.384V46.312C172.384 46.952 172.4 47.584 172.432 48.208C172.464 48.832 172.584 49.392 172.792 49.888C173 50.384 173.32 50.784 173.752 51.088C174.184 51.392 174.816 51.544 175.648 51.544C176.16 51.544 176.688 51.496 177.232 51.4C177.776 51.304 178.272 51.128 178.72 50.872V54.808C178.208 55.096 177.544 55.296 176.728 55.408ZM195.136 55.576C196.832 55.576 198.416 55.264 199.888 54.64C201.36 54.016 202.64 53.168 203.728 52.096C204.816 51.024 205.672 49.76 206.296 48.304C206.92 46.848 207.232 45.288 207.232 43.624C207.232 41.96 206.92 40.408 206.296 38.968C205.672 37.528 204.816 36.264 203.728 35.176C202.64 34.088 201.36 33.232 199.888 32.608C198.416 31.984 196.832 31.672 195.136 31.672C193.44 31.672 191.856 31.984 190.384 32.608C188.912 33.232 187.632 34.088 186.544 35.176C185.456 36.264 184.6 37.528 183.976 38.968C183.352 40.408 183.04 41.96 183.04 43.624C183.04 45.288 183.352 46.848 183.976 48.304C184.6 49.76 185.456 51.024 186.544 52.096C187.632 53.168 188.912 54.016 190.384 54.64C191.856 55.264 193.44 55.576 195.136 55.576ZM192.016 50.944C192.944 51.344 193.984 51.544 195.136 51.544C196.288 51.544 197.328 51.344 198.256 50.944C199.184 50.544 199.968 50 200.608 49.312C201.248 48.624 201.744 47.792 202.096 46.816C202.448 45.84 202.624 44.776 202.624 43.624C202.624 42.472 202.448 41.408 202.096 40.432C201.744 39.456 201.248 38.624 200.608 37.936C199.968 37.248 199.184 36.704 198.256 36.304C197.328 35.904 196.288 35.704 195.136 35.704C193.984 35.704 192.944 35.904 192.016 36.304C191.088 36.704 190.304 37.248 189.664 37.936C189.024 38.624 188.528 39.456 188.176 40.432C187.824 41.408 187.648 42.472 187.648 43.624C187.648 44.776 187.824 45.84 188.176 46.816C188.528 47.792 189.024 48.624 189.664 49.312C190.304 50 191.088 50.544 192.016 50.944ZM216.976 55V43.288C216.976 41.976 217.136 40.84 217.456 39.88C217.776 38.92 218.224 38.128 218.8 37.504C219.376 36.88 220.048 36.424 220.816 36.136C221.584 35.848 222.416 35.704 223.312 35.704C223.984 35.704 224.632 35.808 225.256 36.016C225.88 36.224 226.432 36.56 226.912 37.024C227.392 37.488 227.776 38.096 228.064 38.848C228.352 39.6 228.496 40.504 228.496 41.56V55H232.816V40.36C232.816 38.856 232.592 37.552 232.144 36.448C231.696 35.344 231.096 34.44 230.344 33.736C229.592 33.032 228.712 32.512 227.704 32.176C226.696 31.84 225.648 31.672 224.56 31.672C222.8 31.672 221.248 32.048 219.904 32.8C218.56 33.552 217.616 34.536 217.072 35.752H216.976V32.248H212.656V55H216.976ZM244.072 26.32C243.448 26.944 242.704 27.256 241.84 27.256C240.976 27.256 240.232 26.944 239.608 26.32C238.984 25.696 238.672 24.952 238.672 24.088C238.672 23.224 238.984 22.48 239.608 21.856C240.232 21.232 240.976 20.92 241.84 20.92C242.704 20.92 243.448 21.232 244.072 21.856C244.696 22.48 245.008 23.224 245.008 24.088C245.008 24.952 244.696 25.696 244.072 26.32ZM266.608 54.64C265.136 55.264 263.552 55.576 261.856 55.576C260.16 55.576 258.576 55.264 257.104 54.64C255.632 54.016 254.352 53.168 253.264 52.096C252.176 51.024 251.32 49.76 250.696 48.304C250.072 46.848 249.76 45.288 249.76 43.624C249.76 41.96 250.072 40.408 250.696 38.968C251.32 37.528 252.176 36.264 253.264 35.176C254.352 34.088 255.632 33.232 257.104 32.608C258.576 31.984 260.16 31.672 261.856 31.672C263.552 31.672 265.136 31.984 266.608 32.608C268.08 33.232 269.36 34.088 270.448 35.176C271.536 36.264 272.392 37.528 273.016 38.968C273.64 40.408 273.952 41.96 273.952 43.624C273.952 45.288 273.64 46.848 273.016 48.304C272.392 49.76 271.536 51.024 270.448 52.096C269.36 53.168 268.08 54.016 266.608 54.64ZM261.856 51.544C260.704 51.544 259.664 51.344 258.736 50.944C257.808 50.544 257.024 50 256.384 49.312C255.744 48.624 255.248 47.792 254.896 46.816C254.544 45.84 254.368 44.776 254.368 43.624C254.368 42.472 254.544 41.408 254.896 40.432C255.248 39.456 255.744 38.624 256.384 37.936C257.024 37.248 257.808 36.704 258.736 36.304C259.664 35.904 260.704 35.704 261.856 35.704C263.008 35.704 264.048 35.904 264.976 36.304C265.904 36.704 266.688 37.248 267.328 37.936C267.968 38.624 268.464 39.456 268.816 40.432C269.168 41.408 269.344 42.472 269.344 43.624C269.344 44.776 269.168 45.84 268.816 46.816C268.464 47.792 267.968 48.624 267.328 49.312C266.688 50 265.904 50.544 264.976 50.944C264.048 51.344 263.008 51.544 261.856 51.544ZM290.704 54.664C289.392 55.272 287.872 55.576 286.144 55.576C285.088 55.576 284.08 55.432 283.12 55.144C282.16 54.856 281.32 54.424 280.6 53.848C279.88 53.272 279.312 52.56 278.896 51.712C278.48 50.864 278.272 49.88 278.272 48.76C278.272 47.288 278.6 46.056 279.256 45.064C279.912 44.072 280.808 43.264 281.944 42.64C283.08 42.016 284.408 41.568 285.928 41.296C287.448 41.024 289.072 40.888 290.8 40.888H293.968V39.928C293.968 39.352 293.856 38.776 293.632 38.2C293.408 37.624 293.072 37.104 292.624 36.64C292.176 36.176 291.616 35.808 290.944 35.536C290.272 35.264 289.472 35.128 288.544 35.128C287.712 35.128 286.984 35.208 286.36 35.368C285.736 35.528 285.168 35.728 284.656 35.968C284.144 36.208 283.68 36.488 283.264 36.808C282.848 37.128 282.448 37.432 282.064 37.72L279.472 35.032C280.688 33.912 282.096 33.072 283.696 32.512C285.296 31.952 286.896 31.672 288.496 31.672C290.16 31.672 291.592 31.88 292.792 32.296C293.992 32.712 294.976 33.272 295.744 33.976C296.512 34.68 297.08 35.488 297.448 36.4C297.816 37.312 298 38.264 298 39.256V50.872C298 51.672 298.016 52.408 298.048 53.08C298.08 53.752 298.128 54.392 298.192 55H294.352C294.256 53.848 294.208 52.696 294.208 51.544H294.112C293.152 53.016 292.016 54.056 290.704 54.664ZM287.488 52.12C285.984 52.12 284.792 51.832 283.912 51.256C283.032 50.68 282.592 49.736 282.592 48.424C282.592 47.528 282.872 46.792 283.432 46.216C283.992 45.64 284.712 45.192 285.592 44.872C286.472 44.552 287.448 44.336 288.52 44.224C289.592 44.112 290.64 44.056 291.664 44.056H293.968V45.496C293.968 46.264 293.856 47.04 293.632 47.824C293.408 48.608 293.04 49.32 292.528 49.96C292.016 50.6 291.344 51.12 290.512 51.52C289.68 51.92 288.672 52.12 287.488 52.12ZM319.888 32.248H324.496L315.568 55H310.816L301.552 32.248H306.544L313.36 49.672L319.888 32.248ZM335.056 55.576C336.784 55.576 338.304 55.272 339.616 54.664C340.928 54.056 342.064 53.016 343.024 51.544H343.12C343.12 52.696 343.168 53.848 343.264 55H347.104C347.04 54.392 346.992 53.752 346.96 53.08C346.928 52.408 346.912 51.672 346.912 50.872V39.256C346.912 38.264 346.728 37.312 346.36 36.4C345.992 35.488 345.424 34.68 344.656 33.976C343.888 33.272 342.904 32.712 341.704 32.296C340.504 31.88 339.072 31.672 337.408 31.672C335.808 31.672 334.208 31.952 332.608 32.512C331.008 33.072 329.6 33.912 328.384 35.032L330.976 37.72C331.36 37.432 331.76 37.128 332.176 36.808C332.592 36.488 333.056 36.208 333.568 35.968C334.08 35.728 334.648 35.528 335.272 35.368C335.896 35.208 336.624 35.128 337.456 35.128C338.384 35.128 339.184 35.264 339.856 35.536C340.528 35.808 341.088 36.176 341.536 36.64C341.984 37.104 342.32 37.624 342.544 38.2C342.768 38.776 342.88 39.352 342.88 39.928V40.888H339.712C337.984 40.888 336.36 41.024 334.84 41.296C333.32 41.568 331.992 42.016 330.856 42.64C329.72 43.264 328.824 44.072 328.168 45.064C327.512 46.056 327.184 47.288 327.184 48.76C327.184 49.88 327.392 50.864 327.808 51.712C328.224 52.56 328.792 53.272 329.512 53.848C330.232 54.424 331.072 54.856 332.032 55.144C332.992 55.432 334 55.576 335.056 55.576ZM332.824 51.256C333.704 51.832 334.896 52.12 336.4 52.12C337.584 52.12 338.592 51.92 339.424 51.52C340.256 51.12 340.928 50.6 341.44 49.96C341.952 49.32 342.32 48.608 342.544 47.824C342.768 47.04 342.88 46.264 342.88 45.496V44.056H340.576C339.552 44.056 338.504 44.112 337.432 44.224C336.36 44.336 335.384 44.552 334.504 44.872C333.624 45.192 332.904 45.64 332.344 46.216C331.784 46.792 331.504 47.528 331.504 48.424C331.504 49.736 331.944 50.68 332.824 51.256ZM239.68 55H244V32.248H239.68V55ZM380.464 54.64C378.992 55.264 377.408 55.576 375.712 55.576C374.016 55.576 372.432 55.264 370.96 54.64C369.488 54.016 368.208 53.168 367.12 52.096C366.032 51.024 365.176 49.76 364.552 48.304C363.928 46.848 363.616 45.288 363.616 43.624C363.616 41.96 363.928 40.408 364.552 38.968C365.176 37.528 366.032 36.264 367.12 35.176C368.208 34.088 369.488 33.232 370.96 32.608C372.432 31.984 374.016 31.672 375.712 31.672C377.408 31.672 378.992 31.984 380.464 32.608C381.936 33.232 383.216 34.088 384.304 35.176C385.392 36.264 386.248 37.528 386.872 38.968C387.496 40.408 387.808 41.96 387.808 43.624C387.808 45.288 387.496 46.848 386.872 48.304C386.248 49.76 385.392 51.024 384.304 52.096C383.216 53.168 381.936 54.016 380.464 54.64ZM375.712 51.544C374.56 51.544 373.52 51.344 372.592 50.944C371.664 50.544 370.88 50 370.24 49.312C369.6 48.624 369.104 47.792 368.752 46.816C368.4 45.84 368.224 44.776 368.224 43.624C368.224 42.472 368.4 41.408 368.752 40.432C369.104 39.456 369.6 38.624 370.24 37.936C370.88 37.248 371.664 36.704 372.592 36.304C373.52 35.904 374.56 35.704 375.712 35.704C376.864 35.704 377.904 35.904 378.832 36.304C379.76 36.704 380.544 37.248 381.184 37.936C381.824 38.624 382.32 39.456 382.672 40.432C383.024 41.408 383.2 42.472 383.2 43.624C383.2 44.776 383.024 45.84 382.672 46.816C382.32 47.792 381.824 48.624 381.184 49.312C380.544 50 379.76 50.544 378.832 50.944C377.904 51.344 376.864 51.544 375.712 51.544ZM403.432 55.192C402.328 55.448 401.216 55.576 400.096 55.576C398.208 55.576 396.552 55.288 395.128 54.712C393.704 54.136 392.432 53.08 391.312 51.544L394.576 48.856C395.28 49.56 396.064 50.184 396.928 50.728C397.792 51.272 398.848 51.544 400.096 51.544C400.64 51.544 401.192 51.488 401.752 51.376C402.312 51.264 402.808 51.088 403.24 50.848C403.672 50.608 404.024 50.304 404.296 49.936C404.568 49.568 404.704 49.144 404.704 48.664C404.704 48.024 404.504 47.496 404.104 47.08C403.704 46.664 403.224 46.336 402.664 46.096C402.104 45.856 401.512 45.664 400.888 45.52C400.264 45.376 399.712 45.256 399.232 45.16C398.304 44.936 397.424 44.68 396.592 44.392C395.76 44.104 395.024 43.72 394.384 43.24C393.744 42.76 393.232 42.152 392.848 41.416C392.464 40.68 392.272 39.768 392.272 38.68C392.272 37.496 392.52 36.464 393.016 35.584C393.512 34.704 394.168 33.976 394.984 33.4C395.8 32.824 396.728 32.392 397.768 32.104C398.808 31.816 399.856 31.672 400.912 31.672C402.448 31.672 403.92 31.96 405.328 32.536C406.736 33.112 407.856 34.072 408.688 35.416L405.328 37.96C404.816 37.32 404.184 36.784 403.432 36.352C402.68 35.92 401.76 35.704 400.672 35.704C399.648 35.704 398.76 35.92 398.008 36.352C397.256 36.784 396.88 37.416 396.88 38.248C396.88 38.92 397.096 39.464 397.528 39.88C397.96 40.296 398.472 40.632 399.064 40.888C399.656 41.144 400.288 41.336 400.96 41.464C401.632 41.592 402.208 41.704 402.688 41.8C403.616 42.024 404.488 42.296 405.304 42.616C406.12 42.936 406.824 43.352 407.416 43.864C408.008 44.376 408.472 45 408.808 45.736C409.144 46.472 409.312 47.368 409.312 48.424C409.312 49.704 409.04 50.8 408.496 51.712C407.952 52.624 407.248 53.368 406.384 53.944C405.52 54.52 404.536 54.936 403.432 55.192Z" fill="#EEE"/>
<path d="M0 0H80V80H64C28.6538 80 0 51.3462 0 16V0Z" fill="#EEE"/>
<mask id="mask0" mask-type="alpha" maskUnits="userSpaceOnUse" x="0" y="0" width="80" height="80">
<path d="M0 0H80V80H64C28.6538 80 0 51.3462 0 16V0Z" fill="#1A1A1A"/>
</mask>
<g mask="url(#mask0)">
<circle r="10" transform="matrix(-1 0 0 1 42 24)" fill="#1A1A1A"/>
<path fill-rule="evenodd" clip-rule="evenodd" d="M52 24H36L51.7767 76H52V24Z" fill="#1A1A1A"/>
<path fill-rule="evenodd" clip-rule="evenodd" d="M32 24H39.9016L40 76H32V24Z" fill="#1A1A1A"/>
<circle cx="42" cy="8" r="4" fill="#1A1A1A"/>
<circle cx="42.0556" cy="24" r="4" fill="#EEE"/>
</g>
</svg>
