<?xml version="1.0" encoding="utf-8"?>
<!-- Generator: Adobe Illustrator 24.3.0, SVG Export Plug-In . SVG Version: 6.00 Build 0)  -->
<svg version="1.1" id="Capa_1" xmlns="http://www.w3.org/2000/svg" xmlns:xlink="http://www.w3.org/1999/xlink" x="0px" y="0px"
	 viewBox="0 0 850.39 334.46" style="enable-background:new 0 0 850.39 334.46;" xml:space="preserve">
<style type="text/css">
	.st0{fill:#3C3C3B;}
	.st1{fill:#FFFFFF;}
	.st2{fill:#E63323;}
	.st3{fill:#003063;}
	.st4{fill:none;stroke:#003063;stroke-width:2;stroke-miterlimit:10;}
	.st5{fill:none;stroke:#E63323;stroke-width:2;stroke-miterlimit:10;}
	.st6{fill:none;stroke:#3C3C3B;stroke-width:2;stroke-miterlimit:10;}
	.st7{fill:none;stroke:#FFFFFF;stroke-width:2;stroke-miterlimit:10;}
</style>
<g>
	<g>
		<circle class="st1" cx="134.31" cy="88.91" r="18.8"/>
		<g>
			<g>
				<g>
					<path class="st1" d="M181.68,161.62c0,26.17-21.21,47.38-47.38,47.38c-26.17,0-47.38-21.21-47.38-47.38H70.87l63.44,102.73
						l63.44-102.73H181.68z"/>
				</g>
				<g>
					<g>
						<path class="st2" d="M134.31,114.24c-26.17,0-47.38,21.21-47.38,47.38S108.14,209,134.31,209c26.17,0,47.38-21.21,47.38-47.38
							S160.47,114.24,134.31,114.24z M134.31,180.78c-10.39,0-18.8-8.42-18.8-18.8c0-10.39,8.42-18.8,18.8-18.8
							c10.38,0,18.8,8.42,18.8,18.8C153.11,172.36,144.69,180.78,134.31,180.78z"/>
					</g>
				</g>
			</g>
		</g>
	</g>
	<g>
		<g>
			<path class="st1" d="M233.31,208.82c-0.56,0.06-1.05-0.08-1.46-0.42c-0.41-0.34-0.64-0.81-0.7-1.4l-0.68-5.13
				c-0.17-1.39,0.49-2.22,1.99-2.5c2.94-0.28,5.11-1.21,6.51-2.78c1.4-1.57,2.1-4.12,2.1-7.65v-37.06c0-0.65,0.2-1.19,0.59-1.61
				c0.4-0.42,0.92-0.64,1.57-0.64h6.7c0.65,0,1.19,0.21,1.61,0.64c0.42,0.42,0.64,0.96,0.64,1.61v36.38c0,7.18-1.65,12.3-4.96,15.37
				C243.91,206.69,239.28,208.42,233.31,208.82z M251.76,140.07c-1.22,1.14-2.9,1.72-5.04,1.72c-2.15,0-3.83-0.58-5.05-1.74
				c-1.22-1.16-1.82-2.8-1.82-4.92c0-2.09,0.61-3.7,1.82-4.83c1.22-1.13,2.9-1.7,5.05-1.7c2.15,0,3.83,0.57,5.04,1.7
				c1.22,1.13,1.82,2.74,1.82,4.83C253.58,137.28,252.97,138.92,251.76,140.07z"/>
			<path class="st1" d="M274.36,191.39c-4.3,0-7.58-1-9.86-3.01c-2.28-2.01-3.41-4.92-3.41-8.73c0-7.74,4.83-11.62,14.5-11.62h14.33
				c0.56,0,0.86-0.24,0.89-0.72v-3.82c0-7.24-4.27-10.85-12.81-10.85c-4.98,0-9.29,1.74-12.93,5.22c-0.51,0.51-1.03,0.48-1.57-0.09
				l-0.85-1.31c-0.57-0.56-0.51-1.14,0.17-1.74c3.99-3.99,9.26-5.98,15.82-5.98c11.22,0,16.83,5.07,16.83,15.22v25.06
				c0,0.76-0.38,1.14-1.14,1.14h-1.82c-0.65,0-1.02-0.28-1.1-0.85v-4.79c0-0.28-0.07-0.44-0.21-0.47c-0.14-0.03-0.34,0.07-0.59,0.3
				c-1.61,2.32-3.89,4.07-6.85,5.26C280.8,190.8,277.66,191.39,274.36,191.39z M275.42,187.75c6.95,0,12.01-2.61,15.18-7.84
				c0.17-0.34,0.27-0.62,0.3-0.85v-7.21c0-0.4-0.24-0.59-0.72-0.59h-14.16c-3.36,0-5.96,0.59-7.8,1.78
				c-1.84,1.19-2.76,3.31-2.76,6.36c0,2.6,0.88,4.64,2.63,6.13C269.83,187,272.28,187.75,275.42,187.75z"/>
			<path class="st1" d="M327.49,148.82c9.84,0,14.77,4.89,14.8,14.67v25.52c0,0.76-0.35,1.14-1.06,1.14h-2.42
				c-0.76,0-1.14-0.38-1.14-1.14v-24.63c0-7.63-3.84-11.46-11.53-11.49c-5.57,0-10.32,2.18-14.25,6.53
				c-0.23,0.23-0.34,0.51-0.34,0.85v28.75c0,0.76-0.38,1.14-1.14,1.14h-2.33c-0.76,0-1.14-0.38-1.14-1.14v-37.95
				c0-0.76,0.38-1.13,1.14-1.1h1.91c0.65,0,1.02,0.28,1.1,0.85v3.99c0,0.4,0.09,0.64,0.25,0.72c0.11,0,0.21-0.03,0.3-0.08
				c1.61-1.92,3.8-3.5,6.57-4.75C320.97,149.44,324.07,148.82,327.49,148.82z"/>
			<path class="st1" d="M385.57,186.6c0.28,0.71,0.14,1.2-0.42,1.48c-3.76,2.2-8.35,3.31-13.78,3.31c-4.69,0-8.33-1.19-10.92-3.56
				s-3.88-6.49-3.88-12.34v-21.12c0-0.45-0.23-0.68-0.68-0.68h-3.73c-0.76,0-1.14-0.38-1.14-1.15v-1.48c0-0.76,0.38-1.13,1.14-1.1
				h3.73c0.45,0,0.68-0.24,0.68-0.72v-7.8c0-0.76,0.38-1.14,1.14-1.14h2.33c0.76,0,1.14,0.38,1.14,1.14v7.8
				c0,0.45,0.23,0.69,0.68,0.72h19.29c0.76,0,1.14,0.37,1.14,1.1v1.48c0,0.76-0.38,1.15-1.14,1.15h-19.29
				c-0.45,0-0.68,0.23-0.68,0.68v20.78c0,8.17,3.56,12.24,10.68,12.21c4.41,0,8.28-0.92,11.62-2.76c0.76-0.45,1.29-0.31,1.57,0.42
				L385.57,186.6z"/>
			<path class="st1" d="M407.16,191.39c-5.74,0-10.42-1.41-14.03-4.22c-3.62-2.81-5.43-7.34-5.43-13.59v-7.04
				c0-6.25,1.81-10.78,5.43-13.59c3.62-2.81,8.3-4.22,14.03-4.22c5.68,0,10.33,1.39,13.95,4.18c3.62,2.78,5.43,7.33,5.43,13.63v7.04
				c0,6.3-1.81,10.85-5.43,13.63C417.49,190,412.84,191.39,407.16,191.39z M407.16,187.49c1.87,0,3.62-0.23,5.26-0.7
				c1.64-0.47,3.2-1.21,4.69-2.23c1.48-1.02,2.66-2.47,3.52-4.35c0.86-1.88,1.29-4.12,1.29-6.72v-6.87c0-2.6-0.43-4.84-1.29-6.72
				c-0.86-1.88-2.03-3.31-3.52-4.3c-1.48-0.99-3.05-1.72-4.69-2.18c-1.64-0.47-3.39-0.7-5.26-0.7c-1.92,0-3.7,0.23-5.34,0.7
				c-1.64,0.47-3.2,1.19-4.68,2.18c-1.48,0.99-2.66,2.42-3.52,4.3c-0.86,1.88-1.29,4.12-1.29,6.72v6.87c0,4.98,1.45,8.55,4.35,10.73
				C399.56,186.4,403.06,187.49,407.16,187.49z"/>
			<path class="st1" d="M457.06,148.82c9.84,0,14.77,4.89,14.8,14.67v25.52c0,0.76-0.35,1.14-1.06,1.14h-2.42
				c-0.76,0-1.14-0.38-1.14-1.14v-24.63c0-7.63-3.84-11.46-11.53-11.49c-5.57,0-10.32,2.18-14.25,6.53
				c-0.23,0.23-0.34,0.51-0.34,0.85v28.75c0,0.76-0.38,1.14-1.14,1.14h-2.33c-0.76,0-1.14-0.38-1.14-1.14v-37.95
				c0-0.76,0.38-1.13,1.14-1.1h1.91c0.65,0,1.02,0.28,1.1,0.85v3.99c0,0.4,0.09,0.64,0.25,0.72c0.11,0,0.21-0.03,0.3-0.08
				c1.61-1.92,3.8-3.5,6.57-4.75C450.55,149.44,453.64,148.82,457.06,148.82z"/>
			<path class="st1" d="M485.9,138.69c-1.05,0-1.89-0.3-2.52-0.91c-0.64-0.61-0.95-1.43-0.95-2.48c0-1.05,0.32-1.86,0.95-2.44
				c0.64-0.58,1.48-0.87,2.52-0.87c2.32,0,3.48,1.1,3.48,3.31c0,1.05-0.3,1.87-0.91,2.48C487.86,138.39,487,138.69,485.9,138.69z
				 M484.8,190.16c-0.76,0-1.14-0.38-1.14-1.14v-37.95c0-0.76,0.38-1.13,1.14-1.1h2.33c0.76,0,1.14,0.37,1.14,1.1v37.95
				c0,0.76-0.38,1.14-1.14,1.14H484.8z"/>
			<path class="st1" d="M517.66,191.39c-5.74,0-10.42-1.41-14.03-4.22c-3.62-2.81-5.43-7.34-5.43-13.59v-7.04
				c0-6.25,1.81-10.78,5.43-13.59c3.62-2.81,8.3-4.22,14.03-4.22c5.68,0,10.33,1.39,13.95,4.18c3.62,2.78,5.43,7.33,5.43,13.63v7.04
				c0,6.3-1.81,10.85-5.43,13.63C527.99,190,523.34,191.39,517.66,191.39z M517.66,187.49c1.87,0,3.62-0.23,5.26-0.7
				c1.64-0.47,3.2-1.21,4.69-2.23c1.48-1.02,2.66-2.47,3.52-4.35c0.86-1.88,1.29-4.12,1.29-6.72v-6.87c0-2.6-0.43-4.84-1.29-6.72
				c-0.86-1.88-2.03-3.31-3.52-4.3c-1.48-0.99-3.05-1.72-4.69-2.18c-1.64-0.47-3.39-0.7-5.26-0.7c-1.92,0-3.7,0.23-5.34,0.7
				c-1.64,0.47-3.2,1.19-4.68,2.18c-1.48,0.99-2.66,2.42-3.52,4.3c-0.86,1.88-1.29,4.12-1.29,6.72v6.87c0,4.98,1.45,8.55,4.35,10.73
				C510.06,186.4,513.56,187.49,517.66,187.49z"/>
			<path class="st1" d="M555.61,191.56c-8.85,0-13.29-4.2-13.31-12.59c0-4.1,1.26-7.15,3.79-9.16c2.53-2.01,6.42-3.01,11.68-3.01
				h10.18c0.99,0,1.47-0.31,1.44-0.93v-1.91c0-4.35-3.04-6.53-9.12-6.53c-4.35,0-7.84,1.13-10.47,3.39
				c-1.27,0.76-2.26,0.58-2.97-0.55l-2.71-3.9c-0.4-0.57-0.54-1.14-0.42-1.72c0.11-0.58,0.44-1.01,0.97-1.29
				c4.24-3.36,10.02-5.05,17.34-5.05c5.96,0,10.56,1.24,13.78,3.73c3.22,2.49,4.83,6.88,4.83,13.19V188c0,0.65-0.22,1.17-0.66,1.57
				c-0.44,0.4-0.95,0.59-1.55,0.59h-5.3c-1.16,0-1.85-0.44-2.08-1.31l-0.08-2.5c-0.11-0.51-0.37-0.57-0.76-0.17
				C566.83,189.77,561.97,191.56,555.61,191.56z M558.62,183.12c4.64,0,8.14-1.55,10.51-4.66c0.28-0.23,0.44-0.52,0.47-0.89v-3.39
				c0-0.4-0.27-0.59-0.81-0.59h-9.71c-4.15,0-6.25,1.55-6.28,4.66c0,1.5,0.5,2.69,1.51,3.56
				C555.32,182.69,556.75,183.12,558.62,183.12z"/>
			<path class="st1" d="M625.31,149.63c0.93,0,1.63,0.36,2.08,1.08c0.45,0.72,0.48,1.52,0.09,2.4l-15.52,35.83
				c-0.28,0.82-0.89,1.23-1.82,1.23h-9.75c-0.93,0-1.54-0.41-1.82-1.23l-14.5-35.95c-0.34-0.88-0.29-1.65,0.15-2.33
				c0.44-0.68,1.11-1.02,2.01-1.02h8.1c1.05,0,1.71,0.51,1.99,1.53l8.14,24.34c0.65,2.49,1.31,2.43,1.99-0.17l8.86-24.17
				c0.28-1.04,0.95-1.55,1.99-1.53H625.31z"/>
			<path class="st1" d="M643.72,191.56c-8.85,0-13.29-4.2-13.31-12.59c0-4.1,1.26-7.15,3.79-9.16c2.53-2.01,6.42-3.01,11.68-3.01
				h10.18c0.99,0,1.47-0.31,1.44-0.93v-1.91c0-4.35-3.04-6.53-9.12-6.53c-4.35,0-7.84,1.13-10.47,3.39
				c-1.27,0.76-2.26,0.58-2.97-0.55l-2.71-3.9c-0.4-0.57-0.54-1.14-0.42-1.72c0.11-0.58,0.44-1.01,0.97-1.29
				c4.24-3.36,10.02-5.05,17.34-5.05c5.96,0,10.56,1.24,13.78,3.73c3.22,2.49,4.83,6.88,4.83,13.19V188c0,0.65-0.22,1.17-0.66,1.57
				c-0.44,0.4-0.95,0.59-1.55,0.59h-5.3c-1.16,0-1.85-0.44-2.08-1.31l-0.08-2.5c-0.11-0.51-0.37-0.57-0.76-0.17
				C654.94,189.77,650.08,191.56,643.72,191.56z M646.73,183.12c4.64,0,8.14-1.55,10.51-4.66c0.28-0.23,0.44-0.52,0.47-0.89v-3.39
				c0-0.4-0.27-0.59-0.81-0.59h-9.71c-4.15,0-6.25,1.55-6.28,4.66c0,1.5,0.5,2.69,1.51,3.56
				C643.43,182.69,644.86,183.12,646.73,183.12z"/>
			<path class="st1" d="M679.63,190.16c-0.57,0-1.07-0.2-1.51-0.61c-0.44-0.41-0.66-0.93-0.66-1.55v-60.17
				c0-0.57,0.22-1.07,0.66-1.53c0.44-0.45,0.94-0.68,1.51-0.68h6.78c0.56,0,1.07,0.22,1.51,0.66c0.44,0.44,0.66,0.95,0.66,1.55V188
				c0,0.65-0.21,1.17-0.64,1.57c-0.42,0.4-0.93,0.59-1.53,0.59H679.63z"/>
			<path class="st1" d="M717.58,191.56c-6.25,0-11.34-1.45-15.28-4.35c-3.94-2.9-5.91-7.55-5.91-13.97v-6.7
				c0-6.42,1.96-11.06,5.87-13.93c3.91-2.87,9.02-4.3,15.33-4.3s11.43,1.44,15.37,4.3c3.94,2.87,5.91,7.51,5.91,13.93v6.7
				c0,3.36-0.57,6.25-1.7,8.67c-1.13,2.42-2.71,4.31-4.75,5.68c-2.03,1.37-4.28,2.37-6.74,3.01S720.52,191.56,717.58,191.56z
				 M717.58,182.28c2.94,0,5.36-0.74,7.27-2.23c1.91-1.48,2.86-3.91,2.86-7.27v-5.89c0-3.31-0.95-5.7-2.86-7.17
				c-1.91-1.47-4.33-2.2-7.27-2.2c-2.88,0-5.29,0.74-7.21,2.2c-1.92,1.47-2.88,3.86-2.88,7.17v5.89c0,3.36,0.96,5.79,2.88,7.27
				C712.29,181.53,714.7,182.28,717.58,182.28z"/>
			<path class="st1" d="M760.96,191.56c-7.29,0-12.99-1.82-17.09-5.47c-1.1-0.71-1.26-1.64-0.47-2.8l2.2-3.73
				c0.71-1.16,1.71-1.33,3.01-0.51c2.88,2.77,7,4.15,12.34,4.15c5.51,0,8.27-1.47,8.27-4.41c0-2.15-1.54-3.55-4.62-4.2l-8.69-1.91
				c-4.15-0.99-7.14-2.49-8.97-4.52c-1.82-2.02-2.73-4.61-2.73-7.78c0-3.99,1.52-7,4.56-9.03c3.04-2.04,7.24-3.05,12.61-3.05
				c7.29,0,12.79,1.74,16.49,5.22c0.51,0.28,0.81,0.71,0.91,1.29c0.1,0.58-0.02,1.12-0.36,1.63l-2.37,3.56
				c-0.82,1.1-1.82,1.26-3.01,0.47c-2.71-2.66-6.36-4-10.94-4.03c-5.03,0-7.55,1.34-7.55,4.03c0,1.98,1.61,3.36,4.83,4.15l8.44,1.74
				c3.82,0.76,6.72,2.11,8.71,4.05c1.99,1.94,2.99,4.64,2.99,8.12c0,4.58-1.7,7.89-5.11,9.94
				C771.01,190.54,766.53,191.56,760.96,191.56z"/>
		</g>
	</g>
</g>
</svg>
